<svg width="24" height="24" viewBox="0 0 32 33" fill="none" xmlns="http://www.w3.org/2000/svg">
                                <path fill-rule="evenodd" clip-rule="evenodd" d="M20.3873 0.00718856C16.8196 -0.167343 14.3258 2.8613 15.0525 6.36L15.1064 6.61446C15.228 7.17692 15.683 7.69099 16.3682 7.72472C19.9359 7.89925 22.4297 4.86988 21.703 1.37191L21.6492 1.11671C21.5268 0.554984 21.0718 0.0409216 20.3873 0.00718856ZM30.4687 3.11136C30.7811 3.20993 31.0675 3.37796 31.3067 3.60302C31.546 3.82808 31.7319 4.10441 31.8508 4.41159C31.9697 4.71877 32.0185 5.04894 31.9937 5.37769C31.9689 5.70643 31.871 6.02535 31.7073 6.31087L31.5107 6.65333C30.12 9.07917 27.1173 10.2576 24.4626 9.4209L24.0883 9.30284C23.776 9.20418 23.4897 9.0361 23.2506 8.811C23.0114 8.58591 22.8256 8.30956 22.7067 8.0024C22.5879 7.69523 22.5391 7.36509 22.564 7.03638C22.5889 6.70767 22.6868 6.3888 22.8505 6.10333L23.0464 5.76087C24.4371 3.33503 27.4398 2.15657 30.0945 2.9933L30.4687 3.11136ZM20.2708 12.3784C22.7792 10.2386 26.5799 10.8458 28.3798 13.5972L28.5109 13.7989C28.8203 14.2814 28.8385 14.9832 28.2953 15.4459C25.787 17.5858 21.987 16.9786 20.1864 14.2271L20.0553 14.0255C19.7451 13.5429 19.7277 12.8411 20.2708 12.3784ZM13.7106 17.3988C16.4024 15.0191 20.4507 15.4782 22.3095 18.4548L22.4435 18.6704C22.7639 19.194 22.7282 19.8987 22.2018 20.3643C19.51 22.7447 15.4617 22.2857 13.6028 19.3084L13.4688 19.0928C13.1485 18.5692 13.1842 17.8644 13.7106 17.3988ZM12.0061 4.46362C11.5299 3.93782 10.8251 3.90995 10.2987 4.18348L10.054 4.31182C6.72363 6.07693 5.95111 10.1726 8.50168 12.9915C8.97786 13.5173 9.6834 13.5451 10.2091 13.2716L10.4545 13.1425C13.7848 11.3782 14.5574 7.28179 12.0061 4.46362ZM4.05584 10.2151C7.41825 12.1012 7.98763 16.3002 5.34314 19.0854L5.148 19.29C4.7308 19.7219 4.0471 19.9229 3.42457 19.5731C0.0621574 17.6862 -0.507224 13.4879 2.13727 10.7028L2.3324 10.4989C2.74888 10.0662 3.43258 9.8653 4.05511 10.2151M17.3693 24.3866C15.2906 21.1519 11.1025 20.7398 8.50313 23.5983C8.02185 24.1278 8.05753 24.8442 8.37863 25.3524C8.42474 25.4258 8.47546 25.5052 8.5308 25.5908C10.6103 28.8262 14.7976 29.2383 17.3977 26.3798C17.8783 25.8504 17.8426 25.1332 17.5215 24.6257C17.4754 24.5524 17.4247 24.4722 17.3693 24.3866ZM20.4376 10.7746C20.5993 10.6718 20.7393 10.5379 20.8496 10.3805C20.9599 10.2232 21.0383 10.0455 21.0804 9.85762C21.1226 9.66975 21.1275 9.47535 21.0951 9.28554C21.0626 9.09573 20.9933 8.91422 20.8912 8.75138C20.7891 8.58853 20.6561 8.44754 20.4999 8.33645C20.3437 8.22535 20.1673 8.14634 19.9807 8.10392C19.7942 8.06149 19.6012 8.05649 19.4127 8.08919C19.2242 8.1219 19.044 8.19166 18.8823 8.29451C14.8132 10.888 11.1562 14.0854 8.03496 17.7786C5.11961 21.2201 3.13842 24.5194 1.88389 26.9643C1.38743 27.9273 0.931237 28.9108 0.516498 29.9123C0.360693 30.2944 0.215259 30.6808 0.0803601 31.0709C-0.186128 31.835 0.233263 32.6681 0.99705 32.9248C1.75938 33.1807 2.57559 32.762 2.84354 31.9986C2.95615 31.6744 3.0775 31.3525 3.20759 31.0328C3.4719 30.3889 3.88473 29.4532 4.47086 28.3107C6.06688 25.223 8.00588 22.3278 10.2506 19.6809C13.1819 16.2118 16.6165 13.2085 20.4383 10.7724" fill="#F4A560"/>
                            </svg>